<svg width="131" height="27" viewBox="0 0 131 27" fill="none" xmlns="http://www.w3.org/2000/svg">
<path d="M25.704 12.968C25.704 17.912 24.312 21.356 21.528 23.3C18.96 25.1 15.432 26 10.944 26H0.756V25.316H3.132V1.484H0.756V0.799998H11.88C16.488 0.799998 19.944 1.748 22.248 3.644C24.552 5.516 25.704 8.624 25.704 12.968ZM10.152 25.316H11.52C13.944 25.316 15.672 24.464 16.704 22.76C17.76 21.032 18.288 18.152 18.288 14.12V12.032C18.288 6.632 17.256 3.38 15.192 2.276C14.208 1.748 12.816 1.484 11.016 1.484H10.152V25.316ZM37.0038 26.36C33.9078 26.36 31.5798 25.568 30.0198 23.984C28.4838 22.376 27.7158 20.156 27.7158 17.324C27.7158 14.468 28.5798 12.284 30.3078 10.772C32.0598 9.26 34.2798 8.504 36.9678 8.504C42.4158 8.504 45.0318 11.24 44.8158 16.712H34.6638V18.116C34.6638 20.468 34.9638 22.244 35.5638 23.444C36.1638 24.644 37.2078 25.244 38.6958 25.244C41.4798 25.244 43.3038 23.756 44.1678 20.78L44.8158 20.888C44.3598 22.616 43.5318 23.96 42.3318 24.92C41.1558 25.88 39.3798 26.36 37.0038 26.36ZM34.6998 15.992H38.4078V14.228C38.4078 12.284 38.2878 10.964 38.0478 10.268C37.8318 9.548 37.3758 9.188 36.6798 9.188C36.0078 9.188 35.5038 9.572 35.1678 10.34C34.8558 11.084 34.6998 12.38 34.6998 14.228V15.992ZM44.8242 9.512V8.864H55.5882V9.512H53.3202L57.6402 21.464L61.5282 9.512H59.1162V8.864H63.9762V9.512H62.3922L57.0642 26H52.9602L46.3002 9.512H44.8242ZM78.3844 1.124C74.6644 1.124 72.8044 4.712 72.8044 11.888V14.732C72.8044 18.14 73.2964 20.816 74.2804 22.76C75.2644 24.68 76.7164 25.64 78.6364 25.64C81.2764 25.64 83.7004 23.072 85.9084 17.936H86.5564L86.3044 25.964H85.9084C85.7644 25.7 85.6324 25.52 85.5124 25.424C85.3924 25.304 85.2124 25.244 84.9724 25.244C84.7564 25.244 83.8924 25.436 82.3804 25.82C80.8684 26.18 79.3324 26.36 77.7724 26.36C73.8604 26.36 70.8244 25.304 68.6644 23.192C66.5284 21.08 65.4604 17.912 65.4604 13.688C65.4604 9.44 66.5764 6.164 68.8084 3.86C71.0644 1.556 74.0884 0.403999 77.8804 0.403999C79.3444 0.403999 80.7724 0.595999 82.1644 0.979998C83.5804 1.34 84.4084 1.52 84.6484 1.52C84.8884 1.52 85.0684 1.472 85.1884 1.376C85.3084 1.256 85.4404 1.064 85.5844 0.799998H85.9804L86.2684 8.612H85.6204C84.5404 6.188 83.4244 4.34 82.2724 3.068C81.1444 1.772 79.8484 1.124 78.3844 1.124ZM100.476 18.908V15.848C100.476 13.52 100.344 11.828 100.08 10.772C99.8403 9.692 99.2643 9.152 98.3523 9.152C97.8243 9.152 97.3923 9.308 97.0563 9.62C96.7443 9.908 96.5163 10.4 96.3723 11.096C96.1563 12.176 96.0483 13.82 96.0483 16.028V18.836C96.0483 21.452 96.1203 23.024 96.2643 23.552C96.4323 24.08 96.6003 24.512 96.7683 24.848C97.0323 25.424 97.5483 25.712 98.3163 25.712C99.2523 25.712 99.8643 25.172 100.152 24.092C100.368 23.324 100.476 21.596 100.476 18.908ZM98.2443 26.36C95.2443 26.36 92.9763 25.592 91.4403 24.056C89.9043 22.52 89.1363 20.324 89.1363 17.468C89.1363 14.588 89.9523 12.38 91.5843 10.844C93.2403 9.284 95.5563 8.504 98.5323 8.504C101.508 8.504 103.728 9.224 105.192 10.664C106.656 12.08 107.388 14.252 107.388 17.18C107.388 23.3 104.34 26.36 98.2443 26.36ZM108.467 8.864H117.143V12.176C117.527 11.072 118.115 10.184 118.907 9.512C119.699 8.84 120.899 8.504 122.507 8.504C126.227 8.504 128.087 10.508 128.087 14.516V25.352H130.103V26H119.915V25.352H121.391V13.652C121.391 12.212 121.295 11.288 121.103 10.88C120.911 10.448 120.563 10.232 120.059 10.232C119.291 10.232 118.607 10.736 118.007 11.744C117.431 12.752 117.143 13.976 117.143 15.416V25.352H118.691V26H108.467V25.352H110.447V9.512H108.467V8.864Z" fill="url(#paint0_linear_14_29)"/>
<defs>
<linearGradient id="paint0_linear_14_29" x1="89.5" y1="-12" x2="89.5" y2="49" gradientUnits="userSpaceOnUse">
<stop/>
<stop offset="1" stop-color="#4965DC"/>
</linearGradient>
</defs>
</svg>
