<svg width="531" height="83" viewBox="0 0 531 83" fill="none" xmlns="http://www.w3.org/2000/svg">
<path d="M43.554 41.918C43.554 50.2953 41.1953 56.131 36.478 59.425C32.1267 62.475 26.1487 64 18.544 64H1.281V62.841H5.307V22.459H1.281V21.3H20.13C27.938 21.3 33.794 22.9063 37.698 26.119C41.602 29.291 43.554 34.5573 43.554 41.918ZM17.202 62.841H19.52C23.6273 62.841 26.5553 61.3973 28.304 58.51C30.0933 55.582 30.988 50.702 30.988 43.87V40.332C30.988 31.182 29.2393 25.6717 25.742 23.801C24.0747 22.9063 21.716 22.459 18.666 22.459H17.202V62.841ZM62.7009 64.61C57.4549 64.61 53.5102 63.268 50.8669 60.584C48.2642 57.8593 46.9629 54.0977 46.9629 49.299C46.9629 44.4597 48.4269 40.759 51.3549 38.197C54.3235 35.635 58.0852 34.354 62.6399 34.354C71.8712 34.354 76.3039 38.99 75.9379 48.262H58.7359V50.641C58.7359 54.6263 59.2442 57.6357 60.2609 59.669C61.2775 61.7023 63.0465 62.719 65.5679 62.719C70.2852 62.719 73.3759 60.1977 74.8399 55.155L75.9379 55.338C75.1652 58.266 73.7622 60.5433 71.7289 62.17C69.7362 63.7967 66.7269 64.61 62.7009 64.61ZM58.7969 47.042H65.0799V44.053C65.0799 40.759 64.8765 38.5223 64.4699 37.343C64.1039 36.123 63.3312 35.513 62.1519 35.513C61.0132 35.513 60.1592 36.1637 59.5899 37.465C59.0612 38.7257 58.7969 40.9217 58.7969 44.053V47.042ZM75.9521 36.062V34.964H94.1911V36.062H90.3481L97.6681 56.314L104.256 36.062H100.169V34.964H108.404V36.062H105.72L96.6921 64H89.7381L78.4531 36.062H75.9521ZM132.818 21.849C126.515 21.849 123.363 27.9287 123.363 40.088V44.907C123.363 50.6817 124.197 55.216 125.864 58.51C127.531 61.7633 129.992 63.39 133.245 63.39C137.718 63.39 141.826 59.0387 145.567 50.336H146.665L146.238 63.939H145.567C145.323 63.4917 145.099 63.1867 144.896 63.024C144.693 62.8207 144.388 62.719 143.981 62.719C143.615 62.719 142.151 63.0443 139.589 63.695C137.027 64.305 134.424 64.61 131.781 64.61C125.152 64.61 120.008 62.8207 116.348 59.242C112.729 55.6633 110.919 50.2953 110.919 43.138C110.919 35.94 112.81 30.389 116.592 26.485C120.415 22.581 125.539 20.629 131.964 20.629C134.445 20.629 136.864 20.9543 139.223 21.605C141.622 22.215 143.025 22.52 143.432 22.52C143.839 22.52 144.144 22.4387 144.347 22.276C144.55 22.0727 144.774 21.7473 145.018 21.3H145.689L146.177 34.537H145.079C143.249 30.4297 141.358 27.2983 139.406 25.143C137.495 22.947 135.299 21.849 132.818 21.849ZM170.251 51.983V46.798C170.251 42.8533 170.028 39.9863 169.58 38.197C169.174 36.367 168.198 35.452 166.652 35.452C165.758 35.452 165.026 35.7163 164.456 36.245C163.928 36.733 163.541 37.5667 163.297 38.746C162.931 40.576 162.748 43.3617 162.748 47.103V51.861C162.748 56.2937 162.87 58.9573 163.114 59.852C163.399 60.7467 163.684 61.4787 163.968 62.048C164.416 63.024 165.29 63.512 166.591 63.512C168.177 63.512 169.214 62.597 169.702 60.767C170.068 59.4657 170.251 56.5377 170.251 51.983ZM166.469 64.61C161.386 64.61 157.543 63.3087 154.94 60.706C152.338 58.1033 151.036 54.3823 151.036 49.543C151.036 44.663 152.419 40.9217 155.184 38.319C157.99 35.6757 161.915 34.354 166.957 34.354C172 34.354 175.762 35.574 178.242 38.014C180.723 40.4133 181.963 44.0937 181.963 49.055C181.963 59.425 176.799 64.61 166.469 64.61ZM183.792 34.964H198.493V40.576C199.143 38.7053 200.14 37.2007 201.482 36.062C202.824 34.9233 204.857 34.354 207.582 34.354C213.885 34.354 217.037 37.7497 217.037 44.541V62.902H220.453V64H203.19V62.902H205.691V43.077C205.691 40.637 205.528 39.0713 205.203 38.38C204.877 37.648 204.288 37.282 203.434 37.282C202.132 37.282 200.973 38.136 199.957 39.844C198.981 41.552 198.493 43.626 198.493 46.066V62.902H201.116V64H183.792V62.902H187.147V36.062H183.792V34.964ZM221.38 34.964H236.081V40.576C236.732 38.7053 237.728 37.2007 239.07 36.062C240.412 34.9233 242.446 34.354 245.17 34.354C251.474 34.354 254.625 37.7497 254.625 44.541V62.902H258.041V64H240.778V62.902H243.279V43.077C243.279 40.637 243.117 39.0713 242.791 38.38C242.466 37.648 241.876 37.282 241.022 37.282C239.721 37.282 238.562 38.136 237.545 39.844C236.569 41.552 236.081 43.626 236.081 46.066V62.902H238.704V64H221.38V62.902H224.735V36.062H221.38V34.964ZM274.89 64.61C269.644 64.61 265.7 63.268 263.056 60.584C260.454 57.8593 259.152 54.0977 259.152 49.299C259.152 44.4597 260.616 40.759 263.544 38.197C266.513 35.635 270.275 34.354 274.829 34.354C284.061 34.354 288.493 38.99 288.127 48.262H270.925V50.641C270.925 54.6263 271.434 57.6357 272.45 59.669C273.467 61.7023 275.236 62.719 277.757 62.719C282.475 62.719 285.565 60.1977 287.029 55.155L288.127 55.338C287.355 58.266 285.952 60.5433 283.918 62.17C281.926 63.7967 278.916 64.61 274.89 64.61ZM270.986 47.042H277.269V44.053C277.269 40.759 277.066 38.5223 276.659 37.343C276.293 36.123 275.521 35.513 274.341 35.513C273.203 35.513 272.349 36.1637 271.779 37.465C271.251 38.7257 270.986 40.9217 270.986 44.053V47.042ZM307.38 35.452C305.591 35.452 304.31 36.428 303.537 38.38C302.765 40.332 302.378 43.565 302.378 48.079V51.251C302.378 55.277 302.826 58.1643 303.72 59.913C304.615 61.6617 306.262 62.536 308.661 62.536C311.061 62.536 312.972 61.7227 314.395 60.096C315.819 58.4693 316.734 56.619 317.14 54.545L318.238 54.667C317.466 58.1643 316.042 60.6857 313.968 62.231C311.854 63.817 308.946 64.61 305.245 64.61C300.528 64.61 296.909 63.3493 294.387 60.828C291.866 58.266 290.605 54.545 290.605 49.665C290.605 44.7443 292.029 40.9623 294.875 38.319C297.763 35.6757 301.768 34.354 306.892 34.354C310.512 34.354 313.277 35.0657 315.188 36.489C317.1 37.8717 318.055 39.6203 318.055 41.735C318.055 43.8497 317.588 45.395 316.652 46.371C315.758 47.347 314.497 47.835 312.87 47.835C311.284 47.835 310.003 47.408 309.027 46.554C308.051 45.7 307.563 44.4393 307.563 42.772C307.563 42.04 307.665 41.308 307.868 40.576H309.881C310.166 39.7627 310.308 39.0307 310.308 38.38C310.308 36.428 309.332 35.452 307.38 35.452ZM322.838 55.277V36.062H319.483V34.964H322.838V27.095L334.184 24.289V34.964H342.114V36.062H334.184V56.619C334.184 58.5303 334.367 59.9333 334.733 60.828C335.139 61.7227 335.953 62.17 337.173 62.17C338.393 62.17 339.45 61.56 340.345 60.34C341.28 59.12 341.89 57.4527 342.175 55.338L343.212 55.46C342.886 58.266 341.992 60.5027 340.528 62.17C339.064 63.7967 336.644 64.61 333.269 64.61C329.893 64.61 327.311 63.939 325.522 62.597C323.732 61.255 322.838 58.815 322.838 55.277Z" fill="url(#paint0_linear_14_24)"/>
<defs>
<linearGradient id="paint0_linear_14_24" x1="0" y1="41.2547" x2="530.512" y2="41.2547" gradientUnits="userSpaceOnUse">
<stop/>
<stop offset="1" stop-color="#4965DC"/>
</linearGradient>
</defs>
</svg>
