<svg width="254" height="63" viewBox="0 0 254 63" fill="none" xmlns="http://www.w3.org/2000/svg">
<path d="M32.13 32.2193C32.13 38.3993 30.39 42.7043 26.91 45.1343C23.7 47.3843 19.29 48.5093 13.68 48.5093H0.945V47.6543H3.915V17.8643H0.945V17.0093H14.85C20.61 17.0093 24.93 18.1943 27.81 20.5643C30.69 22.9043 32.13 26.7893 32.13 32.2193ZM12.69 47.6543H14.4C17.43 47.6543 19.59 46.5893 20.88 44.4593C22.2 42.2993 22.86 38.6993 22.86 33.6593V31.0493C22.86 24.2993 21.57 20.2343 18.99 18.8543C17.76 18.1943 16.02 17.8643 13.77 17.8643H12.69V47.6543ZM46.2547 48.9593C42.3847 48.9593 39.4747 47.9693 37.5247 45.9893C35.6047 43.9793 34.6447 41.2043 34.6447 37.6643C34.6447 34.0943 35.7247 31.3643 37.8847 29.4743C40.0747 27.5843 42.8497 26.6393 46.2097 26.6393C53.0197 26.6393 56.2897 30.0593 56.0197 36.8993H43.3297V38.6543C43.3297 41.5943 43.7047 43.8143 44.4547 45.3143C45.2047 46.8143 46.5097 47.5643 48.3697 47.5643C51.8497 47.5643 54.1297 45.7043 55.2097 41.9843L56.0197 42.1193C55.4497 44.2793 54.4147 45.9593 52.9147 47.1593C51.4447 48.3593 49.2247 48.9593 46.2547 48.9593ZM43.3747 35.9993H48.0097V33.7943C48.0097 31.3643 47.8597 29.7143 47.5597 28.8443C47.2897 27.9443 46.7197 27.4943 45.8497 27.4943C45.0097 27.4943 44.3797 27.9743 43.9597 28.9343C43.5697 29.8643 43.3747 31.4843 43.3747 33.7943V35.9993ZM56.0303 27.8993V27.0893H69.4853V27.8993H66.6503L72.0503 42.8393L76.9103 27.8993H73.8953V27.0893H79.9703V27.8993H77.9903L71.3303 48.5093H66.2003L57.8753 27.8993H56.0303ZM97.9805 17.4143C93.3305 17.4143 91.0055 21.8993 91.0055 30.8693V34.4243C91.0055 38.6843 91.6205 42.0293 92.8505 44.4593C94.0805 46.8593 95.8955 48.0593 98.2955 48.0593C101.595 48.0593 104.625 44.8493 107.385 38.4293H108.195L107.88 48.4643H107.385C107.205 48.1343 107.04 47.9093 106.89 47.7893C106.74 47.6393 106.515 47.5643 106.215 47.5643C105.945 47.5643 104.865 47.8043 102.975 48.2843C101.085 48.7343 99.1655 48.9593 97.2155 48.9593C92.3255 48.9593 88.5305 47.6393 85.8305 44.9993C83.1605 42.3593 81.8255 38.3993 81.8255 33.1193C81.8255 27.8093 83.2205 23.7143 86.0105 20.8343C88.8305 17.9543 92.6105 16.5143 97.3505 16.5143C99.1805 16.5143 100.965 16.7543 102.705 17.2343C104.475 17.6843 105.51 17.9093 105.81 17.9093C106.11 17.9093 106.335 17.8493 106.485 17.7293C106.635 17.5793 106.8 17.3393 106.98 17.0093H107.475L107.835 26.7743H107.025C105.675 23.7443 104.28 21.4343 102.84 19.8443C101.43 18.2243 99.8105 17.4143 97.9805 17.4143ZM125.595 39.6443V35.8193C125.595 32.9093 125.43 30.7943 125.1 29.4743C124.8 28.1243 124.08 27.4493 122.94 27.4493C122.28 27.4493 121.74 27.6443 121.32 28.0343C120.93 28.3943 120.645 29.0093 120.465 29.8793C120.195 31.2293 120.06 33.2843 120.06 36.0443V39.5543C120.06 42.8243 120.15 44.7893 120.33 45.4493C120.54 46.1093 120.75 46.6493 120.96 47.0693C121.29 47.7893 121.935 48.1493 122.895 48.1493C124.065 48.1493 124.83 47.4743 125.19 46.1243C125.46 45.1643 125.595 43.0043 125.595 39.6443ZM122.805 48.9593C119.055 48.9593 116.22 47.9993 114.3 46.0793C112.38 44.1593 111.42 41.4143 111.42 37.8443C111.42 34.2443 112.44 31.4843 114.48 29.5643C116.55 27.6143 119.445 26.6393 123.165 26.6393C126.885 26.6393 129.66 27.5393 131.49 29.3393C133.32 31.1093 134.235 33.8243 134.235 37.4843C134.235 45.1343 130.425 48.9593 122.805 48.9593ZM135.584 27.0893H146.429V31.2293C146.909 29.8493 147.644 28.7393 148.634 27.8993C149.624 27.0593 151.124 26.6393 153.134 26.6393C157.784 26.6393 160.109 29.1443 160.109 34.1543V47.6993H162.629V48.5093H149.894V47.6993H151.739V33.0743C151.739 31.2743 151.619 30.1193 151.379 29.6093C151.139 29.0693 150.704 28.7993 150.074 28.7993C149.114 28.7993 148.259 29.4293 147.509 30.6893C146.789 31.9493 146.429 33.4793 146.429 35.2793V47.6993H148.364V48.5093H135.584V47.6993H138.059V27.8993H135.584V27.0893ZM163.313 27.0893H174.158V31.2293C174.638 29.8493 175.373 28.7393 176.363 27.8993C177.353 27.0593 178.853 26.6393 180.863 26.6393C185.513 26.6393 187.838 29.1443 187.838 34.1543V47.6993H190.358V48.5093H177.623V47.6993H179.468V33.0743C179.468 31.2743 179.348 30.1193 179.108 29.6093C178.868 29.0693 178.433 28.7993 177.803 28.7993C176.843 28.7993 175.988 29.4293 175.238 30.6893C174.518 31.9493 174.158 33.4793 174.158 35.2793V47.6993H176.093V48.5093H163.313V47.6993H165.788V27.8993H163.313V27.0893ZM202.788 48.9593C198.918 48.9593 196.008 47.9693 194.058 45.9893C192.138 43.9793 191.178 41.2043 191.178 37.6643C191.178 34.0943 192.258 31.3643 194.418 29.4743C196.608 27.5843 199.383 26.6393 202.743 26.6393C209.553 26.6393 212.823 30.0593 212.553 36.8993H199.863V38.6543C199.863 41.5943 200.238 43.8143 200.988 45.3143C201.738 46.8143 203.043 47.5643 204.903 47.5643C208.383 47.5643 210.663 45.7043 211.743 41.9843L212.553 42.1193C211.983 44.2793 210.948 45.9593 209.448 47.1593C207.978 48.3593 205.758 48.9593 202.788 48.9593ZM199.908 35.9993H204.543V33.7943C204.543 31.3643 204.393 29.7143 204.093 28.8443C203.823 27.9443 203.253 27.4943 202.383 27.4943C201.543 27.4943 200.913 27.9743 200.493 28.9343C200.103 29.8643 199.908 31.4843 199.908 33.7943V35.9993ZM226.756 27.4493C225.436 27.4493 224.491 28.1693 223.921 29.6093C223.351 31.0493 223.066 33.4343 223.066 36.7643V39.1043C223.066 42.0743 223.396 44.2043 224.056 45.4943C224.716 46.7843 225.931 47.4293 227.701 47.4293C229.471 47.4293 230.881 46.8293 231.931 45.6293C232.981 44.4293 233.656 43.0643 233.956 41.5343L234.766 41.6243C234.196 44.2043 233.146 46.0643 231.616 47.2043C230.056 48.3743 227.911 48.9593 225.181 48.9593C221.701 48.9593 219.031 48.0293 217.171 46.1693C215.311 44.2793 214.381 41.5343 214.381 37.9343C214.381 34.3043 215.431 31.5143 217.531 29.5643C219.661 27.6143 222.616 26.6393 226.396 26.6393C229.066 26.6393 231.106 27.1643 232.516 28.2143C233.926 29.2343 234.631 30.5243 234.631 32.0843C234.631 33.6443 234.286 34.7843 233.596 35.5043C232.936 36.2243 232.006 36.5843 230.806 36.5843C229.636 36.5843 228.691 36.2693 227.971 35.6393C227.251 35.0093 226.891 34.0793 226.891 32.8493C226.891 32.3093 226.966 31.7693 227.116 31.2293H228.601C228.811 30.6293 228.916 30.0893 228.916 29.6093C228.916 28.1693 228.196 27.4493 226.756 27.4493ZM238.159 42.0743V27.8993H235.684V27.0893H238.159V21.2843L246.529 19.2143V27.0893H252.379V27.8993H246.529V43.0643C246.529 44.4743 246.664 45.5093 246.934 46.1693C247.234 46.8293 247.834 47.1593 248.734 47.1593C249.634 47.1593 250.414 46.7093 251.074 45.8093C251.764 44.9093 252.214 43.6793 252.424 42.1193L253.189 42.2093C252.949 44.2793 252.289 45.9293 251.209 47.1593C250.129 48.3593 248.344 48.9593 245.854 48.9593C243.364 48.9593 241.459 48.4643 240.139 47.4743C238.819 46.4843 238.159 44.6843 238.159 42.0743Z" fill="url(#paint0_linear_14_26)"/>
<defs>
<linearGradient id="paint0_linear_14_26" x1="0" y1="31.5093" x2="431.037" y2="31.5093" gradientUnits="userSpaceOnUse">
<stop/>
<stop offset="1" stop-color="#4965DC"/>
</linearGradient>
</defs>
</svg>
